<svg width="102" height="14" viewBox="0 0 102 14" fill="none" xmlns="http://www.w3.org/2000/svg">
<path d="M4.24903 11.3954C6.72934 11.3954 8.0076 10.5474 8.0076 7.40643C7.98838 4.24624 6.80554 3.61031 4.34467 3.61031H2.93278V11.3954H4.24903ZM0.223633 1.33653H4.95498C8.67511 1.33653 10.6593 3.47557 10.6593 7.42565C10.6593 11.3375 8.54169 13.6692 4.74514 13.6692H0.223633V1.33653Z" fill="white"/>
<path d="M18.6905 7.75336C18.6523 6.4815 18.0992 5.71062 16.7065 5.71062C15.3901 5.71062 14.8177 6.4815 14.7605 7.75336H18.6905ZM12.0896 8.73607C12.0896 6.26946 12.891 3.64888 16.8399 3.64888C20.5601 3.64888 21.6667 6.6549 21.3807 9.77666H14.7605C14.837 11.1835 15.7143 11.7807 16.8592 11.7807C18.0418 11.7807 18.5189 11.2606 18.6333 10.6825H21.3997C21.2278 12.3398 20.1024 13.8233 16.9546 13.8233C12.9482 13.8233 12.0896 11.2798 12.0896 8.73607Z" fill="white"/>
<path d="M22.5251 8.75533C22.5251 6.11554 23.5743 3.64892 27.4471 3.64892C30.5375 3.64892 32.0066 5.30622 32.0066 7.73418H29.3167C29.164 6.5202 28.6872 5.84562 27.4089 5.84562C25.7112 5.84562 25.1004 7.02094 25.1004 8.71689C25.1004 10.374 25.692 11.5687 27.4089 11.5687C28.6872 11.5687 29.164 10.8752 29.3167 9.79591L32.0066 9.81535C32.0066 12.2239 30.5949 13.8233 27.5043 13.8233C23.5361 13.8233 22.5251 11.3953 22.5251 8.75533Z" fill="white"/>
<path d="M33.5325 3.8032H36.1654V13.6692H33.5325V3.8032Z" fill="white"/>
<path d="M36.9031 3.84239L39.0273 3.64978C39.0273 3.64978 40.9011 3.5654 41.729 5.11424C42.0532 4.51697 42.8354 3.64978 44.6289 3.64978C47.2997 3.64978 47.872 5.59577 47.872 7.79268V13.67H45.2203V7.61929C45.2203 6.67501 45.0104 5.8849 43.7894 5.8849C42.5873 5.8849 42.3203 6.65579 42.3203 7.61929V13.67H39.6688V7.61929C39.6688 6.67501 39.4587 5.8849 38.2377 5.8849C37.0168 5.8849 36.9031 5.88269 36.9031 5.88269V3.84239Z" fill="white"/>
<path d="M54.0615 11.7616C55.8425 11.7616 55.3667 11.7749 56.3501 11.6938L56.3453 9.5369C56.3453 9.5369 52.2684 9.08651 52.2684 10.6053C52.2684 11.2797 52.7835 11.7616 54.0615 11.7616ZM49.54 10.7403C49.54 8.87093 50.7613 8.06161 53.6229 7.81113L56.2176 7.57986C56.1984 6.25036 55.7023 5.69152 54.2524 5.69152C52.8599 5.69152 52.459 6.32723 52.459 7.29095L49.8645 7.31016C49.8645 5.28664 50.6849 3.64878 54.195 3.64878C58.2586 3.64878 58.8311 5.46026 58.8311 8.08105L58.8642 13.6692H58.8653C58.8653 13.6692 55.4162 13.8234 53.432 13.8234C51.2574 13.8234 49.54 12.8599 49.54 10.7403Z" fill="white"/>
<path d="M60.6846 0.287387H63.2983V13.9113H60.6846V0.287387Z" fill="white"/>
<path d="M74.0188 9.65806L72.0726 3.58816L70.0886 9.65806H74.0188ZM70.2225 1.50699H73.9042L78.2158 13.8396H75.3543L74.6866 11.6427H69.4401L68.7344 13.8396H65.8916L70.2225 1.50699Z" fill="white"/>
<path d="M83.0482 4.01665C83.5849 4.02085 84.0998 4.0235 84.5303 4.0235V6.12852C82.1074 6.12852 81.8784 7.44212 81.8784 8.8295V13.8396H79.2646V7.77036C79.2646 5.68587 80.9635 4.00053 83.0482 4.01665Z" fill="white"/>
<path d="M86.5903 10.5638V6.13178H85.1594V4.01814L86.5903 4.01195V1.5069H89.1276V3.97352H91.7031V6.13178H89.204V10.5444C89.204 11.6428 89.8715 11.9125 91.7031 11.7776V13.9361C88.231 14.225 86.5903 13.6083 86.5903 10.5638Z" fill="white"/>
<path d="M92.5806 10.371H95.1561C95.1561 11.3923 95.9382 11.9512 97.3309 11.9512C98.5327 11.9512 99.2007 11.5271 99.2007 10.949C99.2007 9.13778 92.7904 10.4288 92.7904 6.94108C92.7904 4.87913 94.3357 3.81933 97.1403 3.81933C100.002 3.81933 101.49 5.01387 101.49 7.30709H99.0478C98.9334 6.24729 98.4565 5.82319 97.0639 5.82319C95.7476 5.82319 95.3467 6.30516 95.3467 6.80612C95.3467 8.54051 101.776 7.09526 101.776 10.8335C101.776 12.7221 100.021 13.9937 97.3883 13.9937C94.1831 13.9937 92.5806 12.7989 92.5806 10.371Z" fill="white"/>
<path d="M33.4868 3.36708e-06H36.1403V2.45425H33.4868V3.36708e-06Z" fill="white"/>
</svg>
