<svg width="26" height="18" viewBox="0 0 26 18" fill="none" xmlns="http://www.w3.org/2000/svg">
<path d="M13.0837 0H13.2283C14.5642 0.0048047 21.3327 0.052852 23.1577 0.536525C23.7094 0.684139 24.2121 0.971866 24.6157 1.37095C25.0192 1.77004 25.3094 2.26651 25.4572 2.81075C25.6214 3.41934 25.7367 4.22493 25.8147 5.05614L25.831 5.22271L25.8667 5.63911L25.8797 5.80568C25.9854 7.26951 25.9984 8.64045 26 8.93994V9.06006C25.9984 9.37076 25.9837 10.8346 25.8667 12.3593L25.8537 12.5274L25.8391 12.694C25.7579 13.6101 25.6376 14.5198 25.4572 15.1893C25.3094 15.7335 25.0192 16.23 24.6157 16.629C24.2121 17.0281 23.7094 17.3159 23.1577 17.4635C21.2726 17.9632 14.1075 17.9984 13.1146 18H12.8838C12.3816 18 10.3048 17.9904 8.12713 17.9167L7.85087 17.9071L7.70948 17.9007L7.43159 17.8895L7.1537 17.8783C5.34983 17.7998 3.6321 17.6733 2.84068 17.4619C2.28916 17.3144 1.78655 17.0269 1.38304 16.6281C0.979535 16.2293 0.689243 15.7332 0.541159 15.1893C0.360773 14.5214 0.240515 13.6101 0.15926 12.694L0.146259 12.5258L0.133258 12.3593C0.0525938 11.2741 0.0081504 10.1866 0 9.0985L0 8.9015C0.0032502 8.55717 0.016251 7.3672 0.104007 6.05392L0.115382 5.88896L0.120258 5.80568L0.133258 5.63911L0.169011 5.22271L0.185262 5.05614C0.263266 4.22493 0.378649 3.41774 0.542784 2.81075C0.69062 2.26651 0.980801 1.77004 1.38433 1.37095C1.78785 0.971866 2.29059 0.684139 2.8423 0.536525C3.63373 0.328321 5.35146 0.200196 7.15532 0.120117L7.43159 0.108906L7.71111 0.0992973L7.85087 0.0944926L8.12876 0.0832817C9.67538 0.0342793 11.2226 0.00704971 12.77 0.00160164L13.0837 0ZM10.4007 5.14103V12.8574L17.1562 9.0008L10.4007 5.14103Z" fill="white"/>
</svg>
